<?xml version="1.0" encoding="utf-8"?>
<!-- Generator: Adobe Illustrator 24.2.2, SVG Export Plug-In . SVG Version: 6.00 Build 0)  -->
<svg version="1.1" xmlns="http://www.w3.org/2000/svg" xmlns:xlink="http://www.w3.org/1999/xlink" x="0px" y="0px"
	 viewBox="0 0 500 500" style="enable-background:new 0 0 500 500;" xml:space="preserve">
<style type="text/css">
	.st0{fill:#2595FF;}
	.st1{fill:#DB7112;}
	.st2{fill:#FF8619;}
	.st3{fill:#238AED;}
	.st4{fill:none;}
	.st5{fill:#4038FF;}
	.st6{font-family:'Montserrat-Regular';}
	.st7{font-size:0.1437px;}
	.st8{fill:#606060;}
	.st9{font-family:'Montserrat-Medium';}
	.st10{font-size:0.4127px;}
	.st11{font-family:'Montserrat-Bold';}
</style>
<g id="BACKGROUND">
</g>
<g id="OBJECTS">
	<g>
		<path class="st0" d="M293.8,8.22c-0.97,4.69,1.24,10.05,20.28,20.25c0.63,0.34,1.28,0.68,1.93,1.03l1.17,13.59l-1.41-0.85
			c-0.58-0.35-1.34-0.18-1.71,0.37l-0.78,1.19c-0.36,0.55-0.19,1.28,0.39,1.63l3.91,2.34l1.18,13.72l-0.87-0.52
			c-0.58-0.35-1.34-0.18-1.71,0.37l-0.78,1.19c-0.36,0.55-0.19,1.28,0.39,1.63l3.37,2.02l0.95,11.01l8.19,4.9l5.97-43.22
			c10.3,5.15,20.42,10.04,27.52,13.44l0.76,14.3l5.44,3.26l3.82-13.76l4.59,0.99l-2.93-3.51l11.34-9.26l-5.44-3.26l-13.83,5.56
			c-6.29-4.63-15.31-11.2-24.65-17.8L379.09,4.9L370.91,0l-10.8,3.97l-3.37-2.02c-0.58-0.35-1.34-0.18-1.71,0.37l-0.78,1.19
			c-0.36,0.55-0.19,1.28,0.39,1.63l0.87,0.52l-13.47,4.95l-3.91-2.34c-0.58-0.35-1.34-0.18-1.71,0.37l-0.78,1.19
			c-0.36,0.55-0.19,1.28,0.39,1.63l1.41,0.85l-13.34,4.9c-0.61-0.41-1.21-0.81-1.81-1.21c-17.91-11.93-23.93-11.5-27.94-8.62
			C294.07,7.58,293.87,7.88,293.8,8.22z"/>
		<path class="st1" d="M393.2,98.12c-0.46,14.06-5.61,28.84-16.74,41.48c-23.77,27.08-77.21,50.29-163.05,79.47
			c-91.28,31.01-188,62.97-193.5,128.01c-9.7-23.45-15.1-48.97-15.1-75.68c0-113.81,96.72-206.06,216-206.06
			c4.3,0,8.53,0.14,12.76,0.37c53.62,2.98,101.94,24.64,138.04,58.22C380.06,118.52,389.47,110.08,393.2,98.12z"/>
		<path class="st2" d="M177.21,500c-145.93-71.82-81.12-160.95,65.02-223.24C87.52,371.08,126.4,451.13,177.21,500z"/>
		<path class="st0" d="M354.72,181.56c-1.28,1.05-2.63,2.07-3.98,3.12c-85.24,67.48-200.47,93.1-259.95,157.25
			c-45.98,49.62-30.59,84.25-22.78,97.5c-45.34-37.65-43.81-98.76,26.93-140.48C165.69,257.27,257.05,236.4,354.72,181.56z"/>
		<path class="st2" d="M393.2,98.12c-0.46,14.06-5.61,28.84-16.74,41.48c-23.77,27.08-77.21,50.29-163.05,79.47
			c-91.28,31.01-188,62.97-193.5,128.01c-9.7-23.45-15.1-48.97-15.1-75.68c0-113.81,96.72-206.06,216-206.06
			c4.3,0,8.53,0.14,12.76,0.37c-97.04,0.17-190.27,88.25-180.71,176.54c26.29-75.31,220.22-65,318.75-118.31
			C380.06,118.52,389.47,110.08,393.2,98.12z"/>
		<path class="st0" d="M418.11,187.54c20.24-53.02,4.74-101-35.28-125.09c82.25,90.86-61.54,173.5-168.74,258.44
			c-55.76,44.18-65.25,117.48-7.42,145.62c17.64,8.59,38.02,10.51,57.42,6.74c98.55-19.12,172.71-102.22,172.71-201.86
			C436.81,241.52,430.11,213.16,418.11,187.54z"/>
		<path class="st3" d="M418.11,187.54c-30.74,70.61-176.04,163.1-193.13,197.38c-26.31,52.76,45.81,74.42,102.01,34.61
			c-106.54-6.06,89.66-91.13,108.71-169"/>
		<path class="st1" d="M177.21,500c-125.82-94.59-51.41-156.92,65.02-223.24C87.52,371.08,126.4,451.13,177.21,500z"/>
		<path class="st3" d="M350.74,184.68c-85.24,67.48-200.47,93.1-259.95,157.25c-45.98,49.62-30.59,84.25-22.78,97.5
			C-29.55,302.35,250.86,260.56,350.74,184.68z"/>
	</g>
	<rect x="95.92" y="321.59" class="st4" width="0.8" height="0.13"/>
	<text transform="matrix(0.3771 0 0 1 95.9658 321.6914)" class="st5 st6 st7">SLOGAN HERE</text>
	<text transform="matrix(0.3771 0 0 1 95.9551 321.4902)"><tspan x="0" y="0" class="st8 st9 st10">Travel</tspan><tspan x="1.04" y="0" class="st8 st11 st10">Logo</tspan></text>
</g>
</svg>
